<svg width="500" height="500" viewBox="0 0 500 500" fill="none" xmlns="http://www.w3.org/2000/svg">
<g clip-path="url(#clip0_1659_105)">
<path d="M428.168 181.099L325.09 284.066C323.966 285.185 322.049 284.76 321.517 283.276L250.677 85.6184C250.296 84.5472 250.822 83.3682 251.874 82.9314L450.129 0.173545C451.671 -0.472767 453.339 0.789935 453.109 2.43564L428.773 179.884C428.712 180.345 428.495 180.77 428.168 181.105V181.099Z" fill="#216EEE"/>
<path d="M437.018 186.605L499.48 258.597C500.278 259.512 500.145 260.9 499.196 261.655L358.887 373.676C357.14 375.07 354.668 373.233 355.538 371.18L433.385 187.167C434.008 185.701 435.972 185.39 437.018 186.599V186.605Z" fill="#216EEE"/>
<path d="M247.927 300.008L201.477 466.655C201.097 468.02 202.136 469.366 203.563 469.366H296.77C298.202 469.366 299.236 468.02 298.855 466.655L252.098 300.008C251.511 297.914 248.513 297.92 247.933 300.008H247.927Z" fill="#216EEE"/>
<path d="M199.803 475.937C200.589 474.62 202.475 474.524 203.4 475.751L221.607 500L196.424 485.877C195.372 485.284 195.015 483.956 195.626 482.927L199.803 475.937Z" fill="#216EEE"/>
<path d="M300.729 475.015C300.203 474.136 298.946 474.07 298.329 474.89L279.475 500L304.658 485.877C305.71 485.284 306.067 483.956 305.456 482.927L300.729 475.015Z" fill="#216EEE"/>
<path d="M71.8318 181.099L174.91 284.066C176.034 285.185 177.951 284.76 178.482 283.276L249.323 85.6184C249.704 84.5472 249.178 83.3682 248.126 82.9314L49.8706 0.173545C48.3292 -0.472767 46.6608 0.789935 46.8905 2.43564L71.2273 179.884C71.2878 180.345 71.5054 180.77 71.8318 181.105V181.099Z" fill="#216EEE"/>
<path d="M62.982 186.605L0.519811 258.597C-0.278119 259.512 -0.145131 260.9 0.803923 261.655L141.113 373.676C142.86 375.07 145.332 373.233 144.462 371.18L66.615 187.173C65.9924 185.707 64.0278 185.396 62.982 186.605Z" fill="#216EEE"/>
</g>
<defs>
<clipPath id="clip0_1659_105">
<rect width="500" height="500" fill="white"/>
</clipPath>
</defs>
</svg>
