<svg width="291" height="91" viewBox="0 0 291 91" fill="none" xmlns="http://www.w3.org/2000/svg">
<g clip-path="url(#clip0_1601_847)">
<path d="M77.0703 32.96L58.5162 51.7C58.3138 51.9037 57.9689 51.8264 57.8732 51.5562L45.1219 15.5825C45.0533 15.3876 45.148 15.173 45.3373 15.0935L81.0233 0.0315877C81.3008 -0.086041 81.6011 0.143771 81.5597 0.443288L77.1791 32.7389C77.1682 32.8228 77.129 32.9001 77.0703 32.9611V32.96Z" fill="#216EEE"/>
<path d="M78.6632 33.962L89.9064 47.0646C90.0501 47.2312 90.0261 47.4839 89.8553 47.6211L64.5997 68.009C64.2853 68.2628 63.8402 67.9284 63.9969 67.5548L78.0093 34.0644C78.1214 33.7976 78.475 33.7409 78.6632 33.9609V33.962Z" fill="#216EEE"/>
<path d="M44.6268 54.6015L36.2659 84.9312C36.1974 85.1795 36.3845 85.4246 36.6413 85.4246H53.4185C53.6764 85.4246 53.8625 85.1795 53.7939 84.9312L45.3776 54.6015C45.272 54.2203 44.7323 54.2214 44.6279 54.6015H44.6268Z" fill="#216EEE"/>
<path d="M35.9645 86.6205C36.106 86.3809 36.4455 86.3635 36.612 86.5867L39.8893 91L35.3563 88.4296C35.167 88.3218 35.1028 88.08 35.2127 87.8926L35.9645 86.6205Z" fill="#216EEE"/>
<path d="M54.1313 86.4528C54.0366 86.2927 53.8103 86.2807 53.6993 86.4299L50.3055 91L54.8385 88.4296C55.0278 88.3218 55.092 88.08 54.9821 87.8926L54.1313 86.4528Z" fill="#216EEE"/>
<path d="M12.9297 32.96L31.4838 51.7C31.6862 51.9037 32.0311 51.8264 32.1269 51.5562L44.8782 15.5825C44.9467 15.3876 44.852 15.173 44.6627 15.0935L8.97673 0.0315877C8.69926 -0.086041 8.39895 0.143771 8.4403 0.443288L12.8209 32.7389C12.8318 32.8228 12.871 32.9001 12.9297 32.9611V32.96Z" fill="#216EEE"/>
<path d="M11.3368 33.962L0.0936002 47.0646C-0.0500272 47.2312 -0.0260893 47.4839 0.14474 47.6211L25.4003 68.009C25.7148 68.2628 26.1598 67.9284 26.0031 67.5548L11.9907 34.0655C11.8787 33.7987 11.525 33.742 11.3368 33.962Z" fill="#216EEE"/>
</g>
<path d="M140.72 20.5H147.04L138.44 48.5H133.04L126.76 32.82L120.72 48.5H115.32L106.48 20.5H112.92L118.4 39.1L125.76 20.78H127.8L135.36 39.1L140.72 20.5ZM167.605 48.5L165.645 43.18H154.485L152.565 48.5H146.165L157.125 20.5H162.845L174.165 48.5H167.605ZM160.045 27.9L156.405 37.9H163.725L160.045 27.9ZM193.116 48.5L187.676 38.94H183.796V48.5H177.716V20.5H189.036C190.876 20.5 192.542 20.9 194.036 21.7C195.529 22.4733 196.689 23.5667 197.516 24.98C198.369 26.3933 198.796 27.9933 198.796 29.78C198.796 31.5667 198.342 33.18 197.436 34.62C196.529 36.06 195.289 37.1533 193.716 37.9L199.916 48.5H193.116ZM183.796 26.1V33.34H188.636C189.862 33.34 190.836 33.0067 191.556 32.34C192.302 31.6733 192.676 30.8067 192.676 29.74C192.676 29.02 192.516 28.3933 192.196 27.86C191.876 27.3 191.409 26.8733 190.796 26.58C190.182 26.26 189.462 26.1 188.636 26.1H183.796ZM216.207 33.86H231.127C231.1 38.2867 229.753 41.94 227.087 44.82C224.42 47.6733 220.993 49.1 216.807 49.1C212.673 49.1 209.22 47.7267 206.447 44.98C203.7 42.2067 202.327 38.7267 202.327 34.54C202.327 30.3267 203.687 26.8333 206.407 24.06C209.127 21.2867 212.553 19.9 216.687 19.9C220.18 19.9 223.233 20.9 225.847 22.9C228.46 24.8733 230.087 27.4333 230.727 30.58H224.487C224.087 29.5667 223.513 28.7 222.767 27.98C222.02 27.2333 221.127 26.66 220.087 26.26C219.073 25.86 217.98 25.66 216.807 25.66C214.327 25.66 212.313 26.4867 210.767 28.14C209.22 29.7933 208.447 31.9267 208.447 34.54C208.447 36.2467 208.793 37.7667 209.487 39.1C210.18 40.4333 211.153 41.4733 212.407 42.22C213.687 42.9667 215.153 43.34 216.807 43.34C218.007 43.34 219.14 43.14 220.207 42.74C221.273 42.34 222.18 41.78 222.927 41.06C223.7 40.3133 224.26 39.4733 224.607 38.54H216.207V33.86ZM249.082 49.1C244.815 49.1 241.255 47.7133 238.402 44.94C235.575 42.14 234.162 38.66 234.162 34.5C234.162 30.34 235.575 26.8733 238.402 24.1C241.255 21.3 244.815 19.9 249.082 19.9C251.882 19.9 254.415 20.54 256.682 21.82C258.975 23.0733 260.762 24.82 262.042 27.06C263.322 29.2733 263.962 31.7533 263.962 34.5C263.962 38.6867 262.548 42.1667 259.722 44.94C256.895 47.7133 253.348 49.1 249.082 49.1ZM249.082 43.38C250.735 43.38 252.228 43.0067 253.562 42.26C254.895 41.4867 255.935 40.42 256.682 39.06C257.455 37.7 257.842 36.18 257.842 34.5C257.842 31.9667 257.002 29.86 255.322 28.18C253.668 26.4733 251.588 25.62 249.082 25.62C246.602 25.62 244.508 26.4733 242.802 28.18C241.122 29.86 240.282 31.9667 240.282 34.5C240.282 37.0333 241.122 39.1533 242.802 40.86C244.508 42.54 246.602 43.38 249.082 43.38ZM278.011 49.06C274.758 49.06 272.131 48.2067 270.131 46.5C268.158 44.7667 267.171 42.4067 267.171 39.42H273.291C273.291 40.0867 273.411 40.6867 273.651 41.22C273.918 41.7267 274.265 42.14 274.691 42.46C275.145 42.78 275.651 43.02 276.211 43.18C276.771 43.34 277.358 43.42 277.971 43.42C279.198 43.42 280.251 43.1267 281.131 42.54C282.038 41.9533 282.491 41.1533 282.491 40.14C282.491 39.7133 282.385 39.34 282.171 39.02C281.958 38.6733 281.705 38.4067 281.411 38.22C281.145 38.0067 280.718 37.7933 280.131 37.58C279.571 37.3667 279.091 37.2067 278.691 37.1C278.291 36.9933 277.691 36.8467 276.891 36.66C276.251 36.5 275.771 36.38 275.451 36.3C275.131 36.22 274.651 36.0867 274.011 35.9C273.398 35.7133 272.918 35.5533 272.571 35.42C272.251 35.26 271.825 35.0467 271.291 34.78C270.758 34.5133 270.345 34.2467 270.051 33.98C269.758 33.7133 269.425 33.38 269.051 32.98C268.705 32.58 268.438 32.1667 268.251 31.74C268.065 31.2867 267.905 30.78 267.771 30.22C267.638 29.6333 267.571 29.02 267.571 28.38C267.571 25.7133 268.478 23.6467 270.291 22.18C272.105 20.7133 274.585 19.98 277.731 19.98C280.905 19.98 283.371 20.78 285.131 22.38C286.918 23.98 287.811 26.18 287.811 28.98H281.811C281.811 27.8333 281.398 26.9667 280.571 26.38C279.771 25.7667 278.771 25.46 277.571 25.46C276.505 25.46 275.571 25.6867 274.771 26.14C273.998 26.5933 273.611 27.2467 273.611 28.1C273.611 28.5 273.705 28.86 273.891 29.18C274.105 29.4733 274.345 29.7267 274.611 29.94C274.878 30.1267 275.291 30.3267 275.851 30.54C276.411 30.7267 276.878 30.8733 277.251 30.98C277.651 31.06 278.238 31.1933 279.011 31.38C279.865 31.5933 280.505 31.7667 280.931 31.9C281.358 32.0067 281.971 32.2067 282.771 32.5C283.571 32.7667 284.185 33.0333 284.611 33.3C285.065 33.5667 285.585 33.9267 286.171 34.38C286.758 34.8067 287.198 35.2867 287.491 35.82C287.811 36.3267 288.078 36.9533 288.291 37.7C288.531 38.42 288.651 39.2067 288.651 40.06C288.651 42.0067 288.158 43.6733 287.171 45.06C286.185 46.4467 284.905 47.46 283.331 48.1C281.785 48.74 280.011 49.06 278.011 49.06Z" fill="#0A0A0A"/>
<path d="M120.88 70.5V58.24H116.08V56.5H127.66V58.24H122.86V70.5H120.88ZM131.658 62.54H138.858V64.24H131.658V62.54ZM131.838 68.76H139.998V70.5H129.838V56.5H139.718V58.24H131.838V68.76ZM149.477 70.66C148.411 70.66 147.424 70.4867 146.517 70.14C145.624 69.78 144.844 69.28 144.177 68.64C143.524 67.9867 143.011 67.2267 142.637 66.36C142.264 65.4933 142.077 64.54 142.077 63.5C142.077 62.46 142.264 61.5067 142.637 60.64C143.011 59.7733 143.531 59.02 144.197 58.38C144.864 57.7267 145.644 57.2267 146.537 56.88C147.444 56.52 148.431 56.34 149.497 56.34C150.577 56.34 151.571 56.5267 152.477 56.9C153.397 57.26 154.177 57.8 154.817 58.52L153.517 59.78C152.984 59.22 152.384 58.8067 151.717 58.54C151.051 58.26 150.337 58.12 149.577 58.12C148.791 58.12 148.057 58.2533 147.377 58.52C146.711 58.7867 146.131 59.16 145.637 59.64C145.144 60.12 144.757 60.6933 144.477 61.36C144.211 62.0133 144.077 62.7267 144.077 63.5C144.077 64.2733 144.211 64.9933 144.477 65.66C144.757 66.3133 145.144 66.88 145.637 67.36C146.131 67.84 146.711 68.2133 147.377 68.48C148.057 68.7467 148.791 68.88 149.577 68.88C150.337 68.88 151.051 68.7467 151.717 68.48C152.384 68.2 152.984 67.7733 153.517 67.2L154.817 68.46C154.177 69.18 153.397 69.7267 152.477 70.1C151.571 70.4733 150.571 70.66 149.477 70.66ZM167.71 56.5H169.71V70.5H167.71V56.5ZM159.67 70.5H157.67V56.5H159.67V70.5ZM167.89 64.26H159.47V62.52H167.89V64.26ZM173.901 70.5V56.5H175.541L184.801 68H183.941V56.5H185.941V70.5H184.301L175.041 59H175.901V70.5H173.901ZM196.451 70.66C195.385 70.66 194.391 70.48 193.471 70.12C192.565 69.76 191.778 69.26 191.111 68.62C190.445 67.9667 189.925 67.2067 189.551 66.34C189.178 65.4733 188.991 64.5267 188.991 63.5C188.991 62.4733 189.178 61.5267 189.551 60.66C189.925 59.7933 190.445 59.04 191.111 58.4C191.778 57.7467 192.565 57.24 193.471 56.88C194.378 56.52 195.371 56.34 196.451 56.34C197.518 56.34 198.498 56.52 199.391 56.88C200.298 57.2267 201.085 57.7267 201.751 58.38C202.431 59.02 202.951 59.7733 203.311 60.64C203.685 61.5067 203.871 62.46 203.871 63.5C203.871 64.54 203.685 65.4933 203.311 66.36C202.951 67.2267 202.431 67.9867 201.751 68.64C201.085 69.28 200.298 69.78 199.391 70.14C198.498 70.4867 197.518 70.66 196.451 70.66ZM196.451 68.88C197.225 68.88 197.938 68.7467 198.591 68.48C199.258 68.2133 199.831 67.84 200.311 67.36C200.805 66.8667 201.185 66.2933 201.451 65.64C201.731 64.9867 201.871 64.2733 201.871 63.5C201.871 62.7267 201.731 62.0133 201.451 61.36C201.185 60.7067 200.805 60.14 200.311 59.66C199.831 59.1667 199.258 58.7867 198.591 58.52C197.938 58.2533 197.225 58.12 196.451 58.12C195.665 58.12 194.938 58.2533 194.271 58.52C193.618 58.7867 193.045 59.1667 192.551 59.66C192.058 60.14 191.671 60.7067 191.391 61.36C191.125 62.0133 190.991 62.7267 190.991 63.5C190.991 64.2733 191.125 64.9867 191.391 65.64C191.671 66.2933 192.058 66.8667 192.551 67.36C193.045 67.84 193.618 68.2133 194.271 68.48C194.938 68.7467 195.665 68.88 196.451 68.88ZM206.928 70.5V56.5H208.928V68.76H216.508V70.5H206.928ZM224.869 70.66C223.803 70.66 222.809 70.48 221.889 70.12C220.983 69.76 220.196 69.26 219.529 68.62C218.863 67.9667 218.343 67.2067 217.969 66.34C217.596 65.4733 217.409 64.5267 217.409 63.5C217.409 62.4733 217.596 61.5267 217.969 60.66C218.343 59.7933 218.863 59.04 219.529 58.4C220.196 57.7467 220.983 57.24 221.889 56.88C222.796 56.52 223.789 56.34 224.869 56.34C225.936 56.34 226.916 56.52 227.809 56.88C228.716 57.2267 229.503 57.7267 230.169 58.38C230.849 59.02 231.369 59.7733 231.729 60.64C232.103 61.5067 232.289 62.46 232.289 63.5C232.289 64.54 232.103 65.4933 231.729 66.36C231.369 67.2267 230.849 67.9867 230.169 68.64C229.503 69.28 228.716 69.78 227.809 70.14C226.916 70.4867 225.936 70.66 224.869 70.66ZM224.869 68.88C225.643 68.88 226.356 68.7467 227.009 68.48C227.676 68.2133 228.249 67.84 228.729 67.36C229.223 66.8667 229.603 66.2933 229.869 65.64C230.149 64.9867 230.289 64.2733 230.289 63.5C230.289 62.7267 230.149 62.0133 229.869 61.36C229.603 60.7067 229.223 60.14 228.729 59.66C228.249 59.1667 227.676 58.7867 227.009 58.52C226.356 58.2533 225.643 58.12 224.869 58.12C224.083 58.12 223.356 58.2533 222.689 58.52C222.036 58.7867 221.463 59.1667 220.969 59.66C220.476 60.14 220.089 60.7067 219.809 61.36C219.543 62.0133 219.409 62.7267 219.409 63.5C219.409 64.2733 219.543 64.9867 219.809 65.64C220.089 66.2933 220.476 66.8667 220.969 67.36C221.463 67.84 222.036 68.2133 222.689 68.48C223.356 68.7467 224.083 68.88 224.869 68.88ZM241.666 70.66C240.586 70.66 239.593 70.4867 238.686 70.14C237.779 69.78 236.993 69.28 236.326 68.64C235.659 67.9867 235.139 67.2267 234.766 66.36C234.393 65.4933 234.206 64.54 234.206 63.5C234.206 62.46 234.393 61.5067 234.766 60.64C235.139 59.7733 235.659 59.02 236.326 58.38C237.006 57.7267 237.799 57.2267 238.706 56.88C239.613 56.52 240.613 56.34 241.706 56.34C242.813 56.34 243.826 56.52 244.746 56.88C245.666 57.24 246.446 57.78 247.086 58.5L245.846 59.74C245.273 59.18 244.646 58.7733 243.966 58.52C243.299 58.2533 242.573 58.12 241.786 58.12C240.986 58.12 240.239 58.2533 239.546 58.52C238.866 58.7867 238.273 59.16 237.766 59.64C237.273 60.12 236.886 60.6933 236.606 61.36C236.339 62.0133 236.206 62.7267 236.206 63.5C236.206 64.26 236.339 64.9733 236.606 65.64C236.886 66.2933 237.273 66.8667 237.766 67.36C238.273 67.84 238.866 68.2133 239.546 68.48C240.226 68.7467 240.966 68.88 241.766 68.88C242.513 68.88 243.226 68.7667 243.906 68.54C244.599 68.3 245.239 67.9067 245.826 67.36L246.966 68.88C246.273 69.4667 245.459 69.9133 244.526 70.22C243.606 70.5133 242.653 70.66 241.666 70.66ZM245.046 68.62V63.42H246.966V68.88L245.046 68.62ZM250.795 70.5V56.5H252.795V70.5H250.795ZM258.807 62.54H266.007V64.24H258.807V62.54ZM258.987 68.76H267.147V70.5H256.987V56.5H266.867V58.24H258.987V68.76ZM274.465 70.66C273.398 70.66 272.378 70.5 271.405 70.18C270.432 69.8467 269.665 69.42 269.105 68.9L269.845 67.34C270.378 67.8067 271.058 68.1933 271.885 68.5C272.712 68.8067 273.572 68.96 274.465 68.96C275.278 68.96 275.938 68.8667 276.445 68.68C276.952 68.4933 277.325 68.24 277.565 67.92C277.805 67.5867 277.925 67.2133 277.925 66.8C277.925 66.32 277.765 65.9333 277.445 65.64C277.138 65.3467 276.732 65.1133 276.225 64.94C275.732 64.7533 275.185 64.5933 274.585 64.46C273.985 64.3267 273.378 64.1733 272.765 64C272.165 63.8133 271.612 63.58 271.105 63.3C270.612 63.02 270.212 62.6467 269.905 62.18C269.598 61.7 269.445 61.0867 269.445 60.34C269.445 59.62 269.632 58.96 270.005 58.36C270.392 57.7467 270.978 57.26 271.765 56.9C272.565 56.5267 273.578 56.34 274.805 56.34C275.618 56.34 276.425 56.4467 277.225 56.66C278.025 56.8733 278.718 57.18 279.305 57.58L278.645 59.18C278.045 58.78 277.412 58.4933 276.745 58.32C276.078 58.1333 275.432 58.04 274.805 58.04C274.018 58.04 273.372 58.14 272.865 58.34C272.358 58.54 271.985 58.8067 271.745 59.14C271.518 59.4733 271.405 59.8467 271.405 60.26C271.405 60.7533 271.558 61.1467 271.865 61.44C272.185 61.7333 272.592 61.9667 273.085 62.14C273.592 62.3133 274.145 62.4733 274.745 62.62C275.345 62.7533 275.945 62.9067 276.545 63.08C277.158 63.2533 277.712 63.48 278.205 63.76C278.712 64.04 279.118 64.4133 279.425 64.88C279.732 65.3467 279.885 65.9467 279.885 66.68C279.885 67.3867 279.692 68.0467 279.305 68.66C278.918 69.26 278.318 69.7467 277.505 70.12C276.705 70.48 275.692 70.66 274.465 70.66Z" fill="#216EEE"/>
<defs>
<clipPath id="clip0_1601_847">
<rect width="90" height="91" fill="white"/>
</clipPath>
</defs>
</svg>
