<svg width="300" height="260" viewBox="0 0 300 260" fill="none" xmlns="http://www.w3.org/2000/svg">
  <rect x="1" y="1" width="298" height="258" rx="14" fill="white" fill-opacity="0.94"/>
  <rect x="1" y="1" width="298" height="258" rx="14" stroke="#D8E7FF" stroke-width="2"/>
  <text x="24" y="42" fill="#101114" font-family="Arial, Helvetica, sans-serif" font-size="24" font-weight="700">Ranking</text>
  <g font-family="Arial, Helvetica, sans-serif" font-size="14">
    <text x="24" y="87" fill="#60708E">1</text>
    <circle cx="58" cy="82" r="12" fill="#216EEE"/>
    <rect x="84" y="76" width="150" height="9" rx="4.5" fill="#DCEAFF"/>
    <text x="246" y="87" fill="#60708E">320</text>
    <text x="24" y="123" fill="#60708E">2</text>
    <circle cx="58" cy="118" r="12" fill="#E5F0FF"/>
    <rect x="84" y="112" width="130" height="9" rx="4.5" fill="#DCEAFF"/>
    <text x="246" y="123" fill="#60708E">640</text>
    <text x="24" y="159" fill="#60708E">3</text>
    <circle cx="58" cy="154" r="12" fill="#E5F0FF"/>
    <rect x="84" y="148" width="160" height="9" rx="4.5" fill="#DCEAFF"/>
    <text x="246" y="159" fill="#60708E">960</text>
    <text x="24" y="195" fill="#60708E">4</text>
    <circle cx="58" cy="190" r="12" fill="#E5F0FF"/>
    <rect x="84" y="184" width="112" height="9" rx="4.5" fill="#DCEAFF"/>
    <text x="246" y="195" fill="#60708E">1280</text>
  </g>
</svg>
