<svg xmlns="http://www.w3.org/2000/svg" viewBox="0 0 370 370" width="370" height="370" shape-rendering="geometricPrecision">
<g fill="#0e3067">
<path fill-rule="evenodd" d="M 56 40 h 38 a 16 16 0 0 1 16 16 v 38 a 16 16 0 0 1 -16 16 h -38 a 16 16 0 0 1 -16 -16 v -38 a 16 16 0 0 1 16 -16 z M 61 50 a 11 11 0 0 0 -11 11 v 28 a 11 11 0 0 0 11 11 h 28 a 11 11 0 0 0 11 -11 v -28 a 11 11 0 0 0 -11 -11 z"/>
<rect x="60" y="60" width="30" height="30" rx="9" ry="9"/>
<path fill-rule="evenodd" d="M 276 40 h 38 a 16 16 0 0 1 16 16 v 38 a 16 16 0 0 1 -16 16 h -38 a 16 16 0 0 1 -16 -16 v -38 a 16 16 0 0 1 16 -16 z M 281 50 a 11 11 0 0 0 -11 11 v 28 a 11 11 0 0 0 11 11 h 28 a 11 11 0 0 0 11 -11 v -28 a 11 11 0 0 0 -11 -11 z"/>
<rect x="280" y="60" width="30" height="30" rx="9" ry="9"/>
<path fill-rule="evenodd" d="M 56 260 h 38 a 16 16 0 0 1 16 16 v 38 a 16 16 0 0 1 -16 16 h -38 a 16 16 0 0 1 -16 -16 v -38 a 16 16 0 0 1 16 -16 z M 61 270 a 11 11 0 0 0 -11 11 v 28 a 11 11 0 0 0 11 11 h 28 a 11 11 0 0 0 11 -11 v -28 a 11 11 0 0 0 -11 -11 z"/>
<rect x="60" y="280" width="30" height="30" rx="9" ry="9"/>
<rect x="140" y="40" width="10" height="10"/>
<rect x="150" y="40" width="10" height="10"/>
<rect x="160" y="40" width="10" height="10"/>
<rect x="180" y="40" width="10" height="10"/>
<rect x="150" y="50" width="10" height="10"/>
<rect x="180" y="50" width="10" height="10"/>
<rect x="200" y="50" width="10" height="10"/>
<rect x="210" y="50" width="10" height="10"/>
<rect x="220" y="50" width="10" height="10"/>
<rect x="150" y="60" width="10" height="10"/>
<rect x="160" y="60" width="10" height="10"/>
<rect x="170" y="60" width="10" height="10"/>
<rect x="200" y="60" width="10" height="10"/>
<rect x="230" y="60" width="10" height="10"/>
<rect x="140" y="70" width="10" height="10"/>
<rect x="200" y="70" width="10" height="10"/>
<rect x="210" y="70" width="10" height="10"/>
<rect x="220" y="70" width="10" height="10"/>
<rect x="240" y="70" width="10" height="10"/>
<rect x="120" y="80" width="10" height="10"/>
<rect x="140" y="80" width="10" height="10"/>
<rect x="160" y="80" width="10" height="10"/>
<rect x="180" y="80" width="10" height="10"/>
<rect x="190" y="80" width="10" height="10"/>
<rect x="200" y="80" width="10" height="10"/>
<rect x="230" y="80" width="10" height="10"/>
<rect x="130" y="90" width="10" height="10"/>
<rect x="150" y="90" width="10" height="10"/>
<rect x="160" y="90" width="10" height="10"/>
<rect x="180" y="90" width="10" height="10"/>
<rect x="190" y="90" width="10" height="10"/>
<rect x="210" y="90" width="10" height="10"/>
<rect x="220" y="90" width="10" height="10"/>
<rect x="230" y="90" width="10" height="10"/>
<rect x="240" y="90" width="10" height="10"/>
<rect x="120" y="100" width="10" height="10"/>
<rect x="140" y="100" width="10" height="10"/>
<rect x="160" y="100" width="10" height="10"/>
<rect x="180" y="100" width="10" height="10"/>
<rect x="200" y="100" width="10" height="10"/>
<rect x="220" y="100" width="10" height="10"/>
<rect x="240" y="100" width="10" height="10"/>
<rect x="120" y="110" width="10" height="10"/>
<rect x="130" y="110" width="10" height="10"/>
<rect x="140" y="110" width="10" height="10"/>
<rect x="160" y="110" width="10" height="10"/>
<rect x="190" y="110" width="10" height="10"/>
<rect x="230" y="110" width="10" height="10"/>
<rect x="60" y="120" width="10" height="10"/>
<rect x="70" y="120" width="10" height="10"/>
<rect x="100" y="120" width="10" height="10"/>
<rect x="110" y="120" width="10" height="10"/>
<rect x="120" y="120" width="10" height="10"/>
<rect x="140" y="120" width="10" height="10"/>
<rect x="150" y="120" width="10" height="10"/>
<rect x="160" y="120" width="10" height="10"/>
<rect x="170" y="120" width="10" height="10"/>
<rect x="200" y="120" width="10" height="10"/>
<rect x="220" y="120" width="10" height="10"/>
<rect x="230" y="120" width="10" height="10"/>
<rect x="250" y="120" width="10" height="10"/>
<rect x="260" y="120" width="10" height="10"/>
<rect x="280" y="120" width="10" height="10"/>
<rect x="50" y="130" width="10" height="10"/>
<rect x="70" y="130" width="10" height="10"/>
<rect x="90" y="130" width="10" height="10"/>
<rect x="110" y="130" width="10" height="10"/>
<rect x="120" y="130" width="10" height="10"/>
<rect x="130" y="130" width="10" height="10"/>
<rect x="140" y="130" width="10" height="10"/>
<rect x="150" y="130" width="10" height="10"/>
<rect x="180" y="130" width="10" height="10"/>
<rect x="190" y="130" width="10" height="10"/>
<rect x="220" y="130" width="10" height="10"/>
<rect x="240" y="130" width="10" height="10"/>
<rect x="250" y="130" width="10" height="10"/>
<rect x="270" y="130" width="10" height="10"/>
<rect x="290" y="130" width="10" height="10"/>
<rect x="320" y="130" width="10" height="10"/>
<rect x="50" y="140" width="10" height="10"/>
<rect x="60" y="140" width="10" height="10"/>
<rect x="70" y="140" width="10" height="10"/>
<rect x="80" y="140" width="10" height="10"/>
<rect x="90" y="140" width="10" height="10"/>
<rect x="100" y="140" width="10" height="10"/>
<rect x="130" y="140" width="10" height="10"/>
<rect x="150" y="140" width="10" height="10"/>
<rect x="160" y="140" width="10" height="10"/>
<rect x="170" y="140" width="10" height="10"/>
<rect x="210" y="140" width="10" height="10"/>
<rect x="230" y="140" width="10" height="10"/>
<rect x="240" y="140" width="10" height="10"/>
<rect x="260" y="140" width="10" height="10"/>
<rect x="270" y="140" width="10" height="10"/>
<rect x="280" y="140" width="10" height="10"/>
<rect x="290" y="140" width="10" height="10"/>
<rect x="300" y="140" width="10" height="10"/>
<rect x="310" y="140" width="10" height="10"/>
<rect x="40" y="150" width="10" height="10"/>
<rect x="60" y="150" width="10" height="10"/>
<rect x="70" y="150" width="10" height="10"/>
<rect x="80" y="150" width="10" height="10"/>
<rect x="90" y="150" width="10" height="10"/>
<rect x="120" y="150" width="10" height="10"/>
<rect x="140" y="150" width="10" height="10"/>
<rect x="150" y="150" width="10" height="10"/>
<rect x="160" y="150" width="10" height="10"/>
<rect x="190" y="150" width="10" height="10"/>
<rect x="200" y="150" width="10" height="10"/>
<rect x="220" y="150" width="10" height="10"/>
<rect x="240" y="150" width="10" height="10"/>
<rect x="270" y="150" width="10" height="10"/>
<rect x="280" y="150" width="10" height="10"/>
<rect x="290" y="150" width="10" height="10"/>
<rect x="320" y="150" width="10" height="10"/>
<rect x="50" y="160" width="10" height="10"/>
<rect x="70" y="160" width="10" height="10"/>
<rect x="100" y="160" width="10" height="10"/>
<rect x="150" y="160" width="10" height="10"/>
<rect x="160" y="160" width="10" height="10"/>
<rect x="170" y="160" width="10" height="10"/>
<rect x="180" y="160" width="10" height="10"/>
<rect x="190" y="160" width="10" height="10"/>
<rect x="200" y="160" width="10" height="10"/>
<rect x="230" y="160" width="10" height="10"/>
<rect x="250" y="160" width="10" height="10"/>
<rect x="270" y="160" width="10" height="10"/>
<rect x="300" y="160" width="10" height="10"/>
<rect x="310" y="160" width="10" height="10"/>
<rect x="320" y="160" width="10" height="10"/>
<rect x="60" y="170" width="10" height="10"/>
<rect x="110" y="170" width="10" height="10"/>
<rect x="130" y="170" width="10" height="10"/>
<rect x="150" y="170" width="10" height="10"/>
<rect x="160" y="170" width="10" height="10"/>
<rect x="190" y="170" width="10" height="10"/>
<rect x="200" y="170" width="10" height="10"/>
<rect x="210" y="170" width="10" height="10"/>
<rect x="230" y="170" width="10" height="10"/>
<rect x="260" y="170" width="10" height="10"/>
<rect x="270" y="170" width="10" height="10"/>
<rect x="290" y="170" width="10" height="10"/>
<rect x="300" y="170" width="10" height="10"/>
<rect x="320" y="170" width="10" height="10"/>
<rect x="40" y="180" width="10" height="10"/>
<rect x="60" y="180" width="10" height="10"/>
<rect x="70" y="180" width="10" height="10"/>
<rect x="90" y="180" width="10" height="10"/>
<rect x="100" y="180" width="10" height="10"/>
<rect x="130" y="180" width="10" height="10"/>
<rect x="150" y="180" width="10" height="10"/>
<rect x="160" y="180" width="10" height="10"/>
<rect x="170" y="180" width="10" height="10"/>
<rect x="180" y="180" width="10" height="10"/>
<rect x="210" y="180" width="10" height="10"/>
<rect x="220" y="180" width="10" height="10"/>
<rect x="230" y="180" width="10" height="10"/>
<rect x="240" y="180" width="10" height="10"/>
<rect x="260" y="180" width="10" height="10"/>
<rect x="270" y="180" width="10" height="10"/>
<rect x="280" y="180" width="10" height="10"/>
<rect x="290" y="180" width="10" height="10"/>
<rect x="310" y="180" width="10" height="10"/>
<rect x="320" y="180" width="10" height="10"/>
<rect x="70" y="190" width="10" height="10"/>
<rect x="90" y="190" width="10" height="10"/>
<rect x="120" y="190" width="10" height="10"/>
<rect x="150" y="190" width="10" height="10"/>
<rect x="170" y="190" width="10" height="10"/>
<rect x="200" y="190" width="10" height="10"/>
<rect x="210" y="190" width="10" height="10"/>
<rect x="230" y="190" width="10" height="10"/>
<rect x="240" y="190" width="10" height="10"/>
<rect x="280" y="190" width="10" height="10"/>
<rect x="290" y="190" width="10" height="10"/>
<rect x="310" y="190" width="10" height="10"/>
<rect x="40" y="200" width="10" height="10"/>
<rect x="80" y="200" width="10" height="10"/>
<rect x="90" y="200" width="10" height="10"/>
<rect x="100" y="200" width="10" height="10"/>
<rect x="110" y="200" width="10" height="10"/>
<rect x="120" y="200" width="10" height="10"/>
<rect x="140" y="200" width="10" height="10"/>
<rect x="150" y="200" width="10" height="10"/>
<rect x="210" y="200" width="10" height="10"/>
<rect x="290" y="200" width="10" height="10"/>
<rect x="50" y="210" width="10" height="10"/>
<rect x="80" y="210" width="10" height="10"/>
<rect x="130" y="210" width="10" height="10"/>
<rect x="150" y="210" width="10" height="10"/>
<rect x="170" y="210" width="10" height="10"/>
<rect x="190" y="210" width="10" height="10"/>
<rect x="220" y="210" width="10" height="10"/>
<rect x="230" y="210" width="10" height="10"/>
<rect x="250" y="210" width="10" height="10"/>
<rect x="260" y="210" width="10" height="10"/>
<rect x="300" y="210" width="10" height="10"/>
<rect x="40" y="220" width="10" height="10"/>
<rect x="90" y="220" width="10" height="10"/>
<rect x="100" y="220" width="10" height="10"/>
<rect x="110" y="220" width="10" height="10"/>
<rect x="120" y="220" width="10" height="10"/>
<rect x="130" y="220" width="10" height="10"/>
<rect x="150" y="220" width="10" height="10"/>
<rect x="170" y="220" width="10" height="10"/>
<rect x="220" y="220" width="10" height="10"/>
<rect x="240" y="220" width="10" height="10"/>
<rect x="260" y="220" width="10" height="10"/>
<rect x="270" y="220" width="10" height="10"/>
<rect x="280" y="220" width="10" height="10"/>
<rect x="290" y="220" width="10" height="10"/>
<rect x="300" y="220" width="10" height="10"/>
<rect x="70" y="230" width="10" height="10"/>
<rect x="110" y="230" width="10" height="10"/>
<rect x="130" y="230" width="10" height="10"/>
<rect x="140" y="230" width="10" height="10"/>
<rect x="160" y="230" width="10" height="10"/>
<rect x="170" y="230" width="10" height="10"/>
<rect x="180" y="230" width="10" height="10"/>
<rect x="190" y="230" width="10" height="10"/>
<rect x="240" y="230" width="10" height="10"/>
<rect x="250" y="230" width="10" height="10"/>
<rect x="260" y="230" width="10" height="10"/>
<rect x="270" y="230" width="10" height="10"/>
<rect x="300" y="230" width="10" height="10"/>
<rect x="310" y="230" width="10" height="10"/>
<rect x="320" y="230" width="10" height="10"/>
<rect x="50" y="240" width="10" height="10"/>
<rect x="60" y="240" width="10" height="10"/>
<rect x="70" y="240" width="10" height="10"/>
<rect x="80" y="240" width="10" height="10"/>
<rect x="90" y="240" width="10" height="10"/>
<rect x="100" y="240" width="10" height="10"/>
<rect x="120" y="240" width="10" height="10"/>
<rect x="130" y="240" width="10" height="10"/>
<rect x="140" y="240" width="10" height="10"/>
<rect x="160" y="240" width="10" height="10"/>
<rect x="190" y="240" width="10" height="10"/>
<rect x="200" y="240" width="10" height="10"/>
<rect x="210" y="240" width="10" height="10"/>
<rect x="220" y="240" width="10" height="10"/>
<rect x="230" y="240" width="10" height="10"/>
<rect x="240" y="240" width="10" height="10"/>
<rect x="250" y="240" width="10" height="10"/>
<rect x="260" y="240" width="10" height="10"/>
<rect x="270" y="240" width="10" height="10"/>
<rect x="280" y="240" width="10" height="10"/>
<rect x="290" y="240" width="10" height="10"/>
<rect x="310" y="240" width="10" height="10"/>
<rect x="120" y="250" width="10" height="10"/>
<rect x="130" y="250" width="10" height="10"/>
<rect x="160" y="250" width="10" height="10"/>
<rect x="180" y="250" width="10" height="10"/>
<rect x="190" y="250" width="10" height="10"/>
<rect x="200" y="250" width="10" height="10"/>
<rect x="210" y="250" width="10" height="10"/>
<rect x="230" y="250" width="10" height="10"/>
<rect x="240" y="250" width="10" height="10"/>
<rect x="280" y="250" width="10" height="10"/>
<rect x="290" y="250" width="10" height="10"/>
<rect x="320" y="250" width="10" height="10"/>
<rect x="120" y="260" width="10" height="10"/>
<rect x="150" y="260" width="10" height="10"/>
<rect x="180" y="260" width="10" height="10"/>
<rect x="190" y="260" width="10" height="10"/>
<rect x="200" y="260" width="10" height="10"/>
<rect x="220" y="260" width="10" height="10"/>
<rect x="230" y="260" width="10" height="10"/>
<rect x="240" y="260" width="10" height="10"/>
<rect x="260" y="260" width="10" height="10"/>
<rect x="280" y="260" width="10" height="10"/>
<rect x="300" y="260" width="10" height="10"/>
<rect x="310" y="260" width="10" height="10"/>
<rect x="130" y="270" width="10" height="10"/>
<rect x="140" y="270" width="10" height="10"/>
<rect x="150" y="270" width="10" height="10"/>
<rect x="160" y="270" width="10" height="10"/>
<rect x="180" y="270" width="10" height="10"/>
<rect x="190" y="270" width="10" height="10"/>
<rect x="200" y="270" width="10" height="10"/>
<rect x="210" y="270" width="10" height="10"/>
<rect x="240" y="270" width="10" height="10"/>
<rect x="280" y="270" width="10" height="10"/>
<rect x="140" y="280" width="10" height="10"/>
<rect x="170" y="280" width="10" height="10"/>
<rect x="190" y="280" width="10" height="10"/>
<rect x="210" y="280" width="10" height="10"/>
<rect x="240" y="280" width="10" height="10"/>
<rect x="250" y="280" width="10" height="10"/>
<rect x="260" y="280" width="10" height="10"/>
<rect x="270" y="280" width="10" height="10"/>
<rect x="280" y="280" width="10" height="10"/>
<rect x="290" y="280" width="10" height="10"/>
<rect x="300" y="280" width="10" height="10"/>
<rect x="320" y="280" width="10" height="10"/>
<rect x="120" y="290" width="10" height="10"/>
<rect x="150" y="290" width="10" height="10"/>
<rect x="160" y="290" width="10" height="10"/>
<rect x="180" y="290" width="10" height="10"/>
<rect x="190" y="290" width="10" height="10"/>
<rect x="200" y="290" width="10" height="10"/>
<rect x="220" y="290" width="10" height="10"/>
<rect x="230" y="290" width="10" height="10"/>
<rect x="280" y="290" width="10" height="10"/>
<rect x="290" y="290" width="10" height="10"/>
<rect x="120" y="300" width="10" height="10"/>
<rect x="140" y="300" width="10" height="10"/>
<rect x="150" y="300" width="10" height="10"/>
<rect x="160" y="300" width="10" height="10"/>
<rect x="180" y="300" width="10" height="10"/>
<rect x="190" y="300" width="10" height="10"/>
<rect x="240" y="300" width="10" height="10"/>
<rect x="270" y="300" width="10" height="10"/>
<rect x="290" y="300" width="10" height="10"/>
<rect x="300" y="300" width="10" height="10"/>
<rect x="320" y="300" width="10" height="10"/>
<rect x="140" y="310" width="10" height="10"/>
<rect x="170" y="310" width="10" height="10"/>
<rect x="210" y="310" width="10" height="10"/>
<rect x="260" y="310" width="10" height="10"/>
<rect x="280" y="310" width="10" height="10"/>
<rect x="290" y="310" width="10" height="10"/>
<rect x="300" y="310" width="10" height="10"/>
<rect x="310" y="310" width="10" height="10"/>
<rect x="130" y="320" width="10" height="10"/>
<rect x="140" y="320" width="10" height="10"/>
<rect x="160" y="320" width="10" height="10"/>
<rect x="190" y="320" width="10" height="10"/>
<rect x="200" y="320" width="10" height="10"/>
<rect x="210" y="320" width="10" height="10"/>
<rect x="230" y="320" width="10" height="10"/>
<rect x="260" y="320" width="10" height="10"/>
<rect x="270" y="320" width="10" height="10"/>
<rect x="300" y="320" width="10" height="10"/>
<rect x="310" y="320" width="10" height="10"/>
</g>
</svg>
