<svg width="164" height="15" viewBox="0 0 164 15" fill="none" xmlns="http://www.w3.org/2000/svg">
<path d="M4.80004 14.16V1.9H4.39491e-05V0.160003H11.58V1.9H6.78004V14.16H4.80004ZM15.5783 6.2H22.7783V7.9H15.5783V6.2ZM15.7583 12.42H23.9183V14.16H13.7583V0.160003H23.6383V1.9H15.7583V12.42ZM33.3972 14.32C32.3306 14.32 31.3439 14.1467 30.4372 13.8C29.5439 13.44 28.7639 12.94 28.0972 12.3C27.4439 11.6467 26.9306 10.8867 26.5572 10.02C26.1839 9.15334 25.9972 8.2 25.9972 7.16C25.9972 6.12 26.1839 5.16667 26.5572 4.3C26.9306 3.43334 27.4506 2.68 28.1172 2.04C28.7839 1.38667 29.5639 0.88667 30.4572 0.540003C31.3639 0.180003 32.3506 3.57628e-06 33.4172 3.57628e-06C34.4972 3.57628e-06 35.4906 0.18667 36.3972 0.560004C37.3172 0.920003 38.0972 1.46 38.7372 2.18L37.4372 3.44C36.9039 2.88 36.3039 2.46667 35.6372 2.2C34.9706 1.92 34.2572 1.78 33.4972 1.78C32.7106 1.78 31.9772 1.91334 31.2972 2.18C30.6306 2.44667 30.0506 2.82 29.5572 3.3C29.0639 3.78 28.6772 4.35334 28.3972 5.02C28.1306 5.67334 27.9972 6.38667 27.9972 7.16C27.9972 7.93334 28.1306 8.65334 28.3972 9.32C28.6772 9.97334 29.0639 10.54 29.5572 11.02C30.0506 11.5 30.6306 11.8733 31.2972 12.14C31.9772 12.4067 32.7106 12.54 33.4972 12.54C34.2572 12.54 34.9706 12.4067 35.6372 12.14C36.3039 11.86 36.9039 11.4333 37.4372 10.86L38.7372 12.12C38.0972 12.84 37.3172 13.3867 36.3972 13.76C35.4906 14.1333 34.4906 14.32 33.3972 14.32ZM51.6304 0.160003H53.6304V14.16H51.6304V0.160003ZM43.5904 14.16H41.5904V0.160003H43.5904V14.16ZM51.8104 7.92H43.3904V6.18H51.8104V7.92ZM57.8208 14.16V0.160003H59.4608L68.7208 11.66H67.8608V0.160003H69.8608V14.16H68.2208L58.9608 2.66H59.8208V14.16H57.8208ZM80.3713 14.32C79.3046 14.32 78.3113 14.14 77.3913 13.78C76.4846 13.42 75.698 12.92 75.0313 12.28C74.3646 11.6267 73.8446 10.8667 73.4713 10C73.098 9.13334 72.9113 8.18667 72.9113 7.16C72.9113 6.13334 73.098 5.18667 73.4713 4.32C73.8446 3.45334 74.3646 2.7 75.0313 2.06C75.698 1.40667 76.4846 0.900003 77.3913 0.540003C78.298 0.180003 79.2913 3.57628e-06 80.3713 3.57628e-06C81.438 3.57628e-06 82.418 0.180003 83.3113 0.540003C84.218 0.88667 85.0046 1.38667 85.6713 2.04C86.3513 2.68 86.8713 3.43334 87.2313 4.3C87.6046 5.16667 87.7913 6.12 87.7913 7.16C87.7913 8.2 87.6046 9.15334 87.2313 10.02C86.8713 10.8867 86.3513 11.6467 85.6713 12.3C85.0046 12.94 84.218 13.44 83.3113 13.8C82.418 14.1467 81.438 14.32 80.3713 14.32ZM80.3713 12.54C81.1446 12.54 81.858 12.4067 82.5113 12.14C83.178 11.8733 83.7513 11.5 84.2313 11.02C84.7246 10.5267 85.1046 9.95334 85.3713 9.3C85.6513 8.64667 85.7913 7.93334 85.7913 7.16C85.7913 6.38667 85.6513 5.67334 85.3713 5.02C85.1046 4.36667 84.7246 3.8 84.2313 3.32C83.7513 2.82667 83.178 2.44667 82.5113 2.18C81.858 1.91334 81.1446 1.78 80.3713 1.78C79.5846 1.78 78.858 1.91334 78.1913 2.18C77.538 2.44667 76.9646 2.82667 76.4713 3.32C75.978 3.8 75.5913 4.36667 75.3113 5.02C75.0446 5.67334 74.9113 6.38667 74.9113 7.16C74.9113 7.93334 75.0446 8.64667 75.3113 9.3C75.5913 9.95334 75.978 10.5267 76.4713 11.02C76.9646 11.5 77.538 11.8733 78.1913 12.14C78.858 12.4067 79.5846 12.54 80.3713 12.54ZM90.8482 14.16V0.160003H92.8482V12.42H100.428V14.16H90.8482ZM108.789 14.32C107.723 14.32 106.729 14.14 105.809 13.78C104.903 13.42 104.116 12.92 103.449 12.28C102.783 11.6267 102.263 10.8667 101.889 10C101.516 9.13334 101.329 8.18667 101.329 7.16C101.329 6.13334 101.516 5.18667 101.889 4.32C102.263 3.45334 102.783 2.7 103.449 2.06C104.116 1.40667 104.903 0.900003 105.809 0.540003C106.716 0.180003 107.709 3.57628e-06 108.789 3.57628e-06C109.856 3.57628e-06 110.836 0.180003 111.729 0.540003C112.636 0.88667 113.423 1.38667 114.089 2.04C114.769 2.68 115.289 3.43334 115.649 4.3C116.023 5.16667 116.209 6.12 116.209 7.16C116.209 8.2 116.023 9.15334 115.649 10.02C115.289 10.8867 114.769 11.6467 114.089 12.3C113.423 12.94 112.636 13.44 111.729 13.8C110.836 14.1467 109.856 14.32 108.789 14.32ZM108.789 12.54C109.563 12.54 110.276 12.4067 110.929 12.14C111.596 11.8733 112.169 11.5 112.649 11.02C113.143 10.5267 113.523 9.95334 113.789 9.3C114.069 8.64667 114.209 7.93334 114.209 7.16C114.209 6.38667 114.069 5.67334 113.789 5.02C113.523 4.36667 113.143 3.8 112.649 3.32C112.169 2.82667 111.596 2.44667 110.929 2.18C110.276 1.91334 109.563 1.78 108.789 1.78C108.003 1.78 107.276 1.91334 106.609 2.18C105.956 2.44667 105.383 2.82667 104.889 3.32C104.396 3.8 104.009 4.36667 103.729 5.02C103.463 5.67334 103.329 6.38667 103.329 7.16C103.329 7.93334 103.463 8.64667 103.729 9.3C104.009 9.95334 104.396 10.5267 104.889 11.02C105.383 11.5 105.956 11.8733 106.609 12.14C107.276 12.4067 108.003 12.54 108.789 12.54ZM125.586 14.32C124.506 14.32 123.513 14.1467 122.606 13.8C121.699 13.44 120.913 12.94 120.246 12.3C119.579 11.6467 119.059 10.8867 118.686 10.02C118.313 9.15334 118.126 8.2 118.126 7.16C118.126 6.12 118.313 5.16667 118.686 4.3C119.059 3.43334 119.579 2.68 120.246 2.04C120.926 1.38667 121.719 0.88667 122.626 0.540003C123.533 0.180003 124.533 3.57628e-06 125.626 3.57628e-06C126.733 3.57628e-06 127.746 0.180003 128.666 0.540003C129.586 0.900003 130.366 1.44 131.006 2.16L129.766 3.4C129.193 2.84 128.566 2.43334 127.886 2.18C127.219 1.91334 126.493 1.78 125.706 1.78C124.906 1.78 124.159 1.91334 123.466 2.18C122.786 2.44667 122.193 2.82 121.686 3.3C121.193 3.78 120.806 4.35334 120.526 5.02C120.259 5.67334 120.126 6.38667 120.126 7.16C120.126 7.92 120.259 8.63334 120.526 9.3C120.806 9.95334 121.193 10.5267 121.686 11.02C122.193 11.5 122.786 11.8733 123.466 12.14C124.146 12.4067 124.886 12.54 125.686 12.54C126.433 12.54 127.146 12.4267 127.826 12.2C128.519 11.96 129.159 11.5667 129.746 11.02L130.886 12.54C130.193 13.1267 129.379 13.5733 128.446 13.88C127.526 14.1733 126.573 14.32 125.586 14.32ZM128.966 12.28V7.08H130.886V12.54L128.966 12.28ZM134.715 14.16V0.160003H136.715V14.16H134.715ZM142.727 6.2H149.927V7.9H142.727V6.2ZM142.907 12.42H151.067V14.16H140.907V0.160003H150.787V1.9H142.907V12.42ZM158.385 14.32C157.319 14.32 156.299 14.16 155.325 13.84C154.352 13.5067 153.585 13.08 153.025 12.56L153.765 11C154.299 11.4667 154.979 11.8533 155.805 12.16C156.632 12.4667 157.492 12.62 158.385 12.62C159.199 12.62 159.859 12.5267 160.365 12.34C160.872 12.1533 161.245 11.9 161.485 11.58C161.725 11.2467 161.845 10.8733 161.845 10.46C161.845 9.98 161.685 9.59334 161.365 9.3C161.059 9.00667 160.652 8.77334 160.145 8.6C159.652 8.41334 159.105 8.25334 158.505 8.12C157.905 7.98667 157.299 7.83334 156.685 7.66C156.085 7.47334 155.532 7.24 155.025 6.96C154.532 6.68 154.132 6.30667 153.825 5.84C153.519 5.36 153.365 4.74667 153.365 4C153.365 3.28 153.552 2.62 153.925 2.02C154.312 1.40667 154.899 0.920003 155.685 0.560004C156.485 0.18667 157.499 3.57628e-06 158.725 3.57628e-06C159.539 3.57628e-06 160.345 0.10667 161.145 0.320003C161.945 0.533336 162.639 0.840003 163.225 1.24L162.565 2.84C161.965 2.44 161.332 2.15334 160.665 1.98C159.999 1.79334 159.352 1.7 158.725 1.7C157.939 1.7 157.292 1.8 156.785 2C156.279 2.2 155.905 2.46667 155.665 2.8C155.439 3.13334 155.325 3.50667 155.325 3.92C155.325 4.41334 155.479 4.80667 155.785 5.1C156.105 5.39334 156.512 5.62667 157.005 5.8C157.512 5.97334 158.065 6.13334 158.665 6.28C159.265 6.41334 159.865 6.56667 160.465 6.74C161.079 6.91334 161.632 7.14 162.125 7.42C162.632 7.7 163.039 8.07334 163.345 8.54C163.652 9.00667 163.805 9.60667 163.805 10.34C163.805 11.0467 163.612 11.7067 163.225 12.32C162.839 12.92 162.239 13.4067 161.425 13.78C160.625 14.14 159.612 14.32 158.385 14.32Z" fill="#216EEE"/>
</svg>
