<svg width="90" height="91" viewBox="0 0 90 91" fill="none" xmlns="http://www.w3.org/2000/svg">
<g clip-path="url(#clip0_1640_92)">
<path d="M77.0703 32.96L58.5162 51.7C58.3138 51.9037 57.9689 51.8264 57.8732 51.5562L45.1219 15.5825C45.0533 15.3876 45.148 15.173 45.3373 15.0935L81.0233 0.0315877C81.3008 -0.086041 81.6011 0.143771 81.5597 0.443288L77.1791 32.7389C77.1682 32.8228 77.129 32.9001 77.0703 32.9611V32.96Z" fill="#216EEE"/>
<path d="M78.6632 33.962L89.9064 47.0646C90.0501 47.2312 90.0261 47.4839 89.8553 47.6211L64.5997 68.009C64.2853 68.2628 63.8402 67.9284 63.9969 67.5548L78.0093 34.0644C78.1214 33.7976 78.475 33.7409 78.6632 33.9609V33.962Z" fill="#216EEE"/>
<path d="M44.6268 54.6015L36.2659 84.9312C36.1974 85.1795 36.3845 85.4246 36.6413 85.4246H53.4185C53.6764 85.4246 53.8625 85.1795 53.7939 84.9312L45.3776 54.6015C45.272 54.2203 44.7323 54.2214 44.6279 54.6015H44.6268Z" fill="#216EEE"/>
<path d="M35.9645 86.6205C36.106 86.3809 36.4455 86.3635 36.612 86.5867L39.8893 91L35.3563 88.4296C35.167 88.3218 35.1028 88.08 35.2127 87.8926L35.9645 86.6205Z" fill="#216EEE"/>
<path d="M54.1313 86.4528C54.0366 86.2927 53.8103 86.2807 53.6993 86.4299L50.3055 91L54.8385 88.4296C55.0278 88.3218 55.092 88.08 54.9821 87.8926L54.1313 86.4528Z" fill="#216EEE"/>
<path d="M12.9297 32.96L31.4838 51.7C31.6862 51.9037 32.0311 51.8264 32.1269 51.5562L44.8782 15.5825C44.9467 15.3876 44.852 15.173 44.6627 15.0935L8.97673 0.0315877C8.69926 -0.086041 8.39895 0.143771 8.4403 0.443288L12.8209 32.7389C12.8318 32.8228 12.871 32.9001 12.9297 32.9611V32.96Z" fill="#216EEE"/>
<path d="M11.3368 33.962L0.0936002 47.0646C-0.0500272 47.2312 -0.0260893 47.4839 0.14474 47.6211L25.4003 68.009C25.7148 68.2628 26.1598 67.9284 26.0031 67.5548L11.9907 34.0655C11.8787 33.7987 11.525 33.742 11.3368 33.962Z" fill="#216EEE"/>
</g>
<defs>
<clipPath id="clip0_1640_92">
<rect width="90" height="91" fill="white"/>
</clipPath>
</defs>
</svg>
