<svg width="183" height="30" viewBox="106 19 183 31" fill="none" xmlns="http://www.w3.org/2000/svg">
<path d="M140.72 20.5H147.04L138.44 48.5H133.04L126.76 32.82L120.72 48.5H115.32L106.48 20.5H112.92L118.4 39.1L125.76 20.78H127.8L135.36 39.1L140.72 20.5ZM167.605 48.5L165.645 43.18H154.485L152.565 48.5H146.165L157.125 20.5H162.845L174.165 48.5H167.605ZM160.045 27.9L156.405 37.9H163.725L160.045 27.9ZM193.116 48.5L187.676 38.94H183.796V48.5H177.716V20.5H189.036C190.876 20.5 192.542 20.9 194.036 21.7C195.529 22.4733 196.689 23.5667 197.516 24.98C198.369 26.3933 198.796 27.9933 198.796 29.78C198.796 31.5667 198.342 33.18 197.436 34.62C196.529 36.06 195.289 37.1533 193.716 37.9L199.916 48.5H193.116ZM183.796 26.1V33.34H188.636C189.862 33.34 190.836 33.0067 191.556 32.34C192.302 31.6733 192.676 30.8067 192.676 29.74C192.676 29.02 192.516 28.3933 192.196 27.86C191.876 27.3 191.409 26.8733 190.796 26.58C190.182 26.26 189.462 26.1 188.636 26.1H183.796ZM216.207 33.86H231.127C231.1 38.2867 229.753 41.94 227.087 44.82C224.42 47.6733 220.993 49.1 216.807 49.1C212.673 49.1 209.22 47.7267 206.447 44.98C203.7 42.2067 202.327 38.7267 202.327 34.54C202.327 30.3267 203.687 26.8333 206.407 24.06C209.127 21.2867 212.553 19.9 216.687 19.9C220.18 19.9 223.233 20.9 225.847 22.9C228.46 24.8733 230.087 27.4333 230.727 30.58H224.487C224.087 29.5667 223.513 28.7 222.767 27.98C222.02 27.2333 221.127 26.66 220.087 26.26C219.073 25.86 217.98 25.66 216.807 25.66C214.327 25.66 212.313 26.4867 210.767 28.14C209.22 29.7933 208.447 31.9267 208.447 34.54C208.447 36.2467 208.793 37.7667 209.487 39.1C210.18 40.4333 211.153 41.4733 212.407 42.22C213.687 42.9667 215.153 43.34 216.807 43.34C218.007 43.34 219.14 43.14 220.207 42.74C221.273 42.34 222.18 41.78 222.927 41.06C223.7 40.3133 224.26 39.4733 224.607 38.54H216.207V33.86ZM249.082 49.1C244.815 49.1 241.255 47.7133 238.402 44.94C235.575 42.14 234.162 38.66 234.162 34.5C234.162 30.34 235.575 26.8733 238.402 24.1C241.255 21.3 244.815 19.9 249.082 19.9C251.882 19.9 254.415 20.54 256.682 21.82C258.975 23.0733 260.762 24.82 262.042 27.06C263.322 29.2733 263.962 31.7533 263.962 34.5C263.962 38.6867 262.548 42.1667 259.722 44.94C256.895 47.7133 253.348 49.1 249.082 49.1ZM249.082 43.38C250.735 43.38 252.228 43.0067 253.562 42.26C254.895 41.4867 255.935 40.42 256.682 39.06C257.455 37.7 257.842 36.18 257.842 34.5C257.842 31.9667 257.002 29.86 255.322 28.18C253.668 26.4733 251.588 25.62 249.082 25.62C246.602 25.62 244.508 26.4733 242.802 28.18C241.122 29.86 240.282 31.9667 240.282 34.5C240.282 37.0333 241.122 39.1533 242.802 40.86C244.508 42.54 246.602 43.38 249.082 43.38ZM278.011 49.06C274.758 49.06 272.131 48.2067 270.131 46.5C268.158 44.7667 267.171 42.4067 267.171 39.42H273.291C273.291 40.0867 273.411 40.6867 273.651 41.22C273.918 41.7267 274.265 42.14 274.691 42.46C275.145 42.78 275.651 43.02 276.211 43.18C276.771 43.34 277.358 43.42 277.971 43.42C279.198 43.42 280.251 43.1267 281.131 42.54C282.038 41.9533 282.491 41.1533 282.491 40.14C282.491 39.7133 282.385 39.34 282.171 39.02C281.958 38.6733 281.705 38.4067 281.411 38.22C281.145 38.0067 280.718 37.7933 280.131 37.58C279.571 37.3667 279.091 37.2067 278.691 37.1C278.291 36.9933 277.691 36.8467 276.891 36.66C276.251 36.5 275.771 36.38 275.451 36.3C275.131 36.22 274.651 36.0867 274.011 35.9C273.398 35.7133 272.918 35.5533 272.571 35.42C272.251 35.26 271.825 35.0467 271.291 34.78C270.758 34.5133 270.345 34.2467 270.051 33.98C269.758 33.7133 269.425 33.38 269.051 32.98C268.705 32.58 268.438 32.1667 268.251 31.74C268.065 31.2867 267.905 30.78 267.771 30.22C267.638 29.6333 267.571 29.02 267.571 28.38C267.571 25.7133 268.478 23.6467 270.291 22.18C272.105 20.7133 274.585 19.98 277.731 19.98C280.905 19.98 283.371 20.78 285.131 22.38C286.918 23.98 287.811 26.18 287.811 28.98H281.811C281.811 27.8333 281.398 26.9667 280.571 26.38C279.771 25.7667 278.771 25.46 277.571 25.46C276.505 25.46 275.571 25.6867 274.771 26.14C273.998 26.5933 273.611 27.2467 273.611 28.1C273.611 28.5 273.705 28.86 273.891 29.18C274.105 29.4733 274.345 29.7267 274.611 29.94C274.878 30.1267 275.291 30.3267 275.851 30.54C276.411 30.7267 276.878 30.8733 277.251 30.98C277.651 31.06 278.238 31.1933 279.011 31.38C279.865 31.5933 280.505 31.7667 280.931 31.9C281.358 32.0067 281.971 32.2067 282.771 32.5C283.571 32.7667 284.185 33.0333 284.611 33.3C285.065 33.5667 285.585 33.9267 286.171 34.38C286.758 34.8067 287.198 35.2867 287.491 35.82C287.811 36.3267 288.078 36.9533 288.291 37.7C288.531 38.42 288.651 39.2067 288.651 40.06C288.651 42.0067 288.158 43.6733 287.171 45.06C286.185 46.4467 284.905 47.46 283.331 48.1C281.785 48.74 280.011 49.06 278.011 49.06Z" fill="#0A0A0A"/>
</svg>
