<svg width="183" height="30" viewBox="0 0 183 30" fill="none" xmlns="http://www.w3.org/2000/svg">
<path d="M34.24 0.600004H40.56L31.96 28.6H26.56L20.28 12.92L14.24 28.6H8.84002L1.95354e-05 0.600004H6.44002L11.92 19.2L19.28 0.880005H21.32L28.88 19.2L34.24 0.600004ZM61.1247 28.6L59.1647 23.28H48.0047L46.0847 28.6H39.6847L50.6447 0.600004H56.3647L67.6847 28.6H61.1247ZM53.5647 8L49.9247 18H57.2447L53.5647 8ZM86.6356 28.6L81.1956 19.04H77.3156V28.6H71.2356V0.600004H82.5556C84.3956 0.600004 86.0623 1 87.5556 1.80001C89.049 2.57334 90.209 3.66667 91.0356 5.08001C91.889 6.49334 92.3156 8.09334 92.3156 9.88001C92.3156 11.6667 91.8623 13.28 90.9556 14.72C90.049 16.16 88.809 17.2533 87.2356 18L93.4356 28.6H86.6356ZM77.3156 6.20001V13.44H82.1556C83.3823 13.44 84.3556 13.1067 85.0756 12.44C85.8223 11.7733 86.1956 10.9067 86.1956 9.84001C86.1956 9.12001 86.0356 8.49334 85.7156 7.96C85.3956 7.40001 84.929 6.97334 84.3156 6.68C83.7023 6.36001 82.9823 6.20001 82.1556 6.20001H77.3156ZM109.727 13.96H124.647C124.62 18.3867 123.273 22.04 120.607 24.92C117.94 27.7733 114.513 29.2 110.327 29.2C106.193 29.2 102.74 27.8267 99.9666 25.08C97.2199 22.3067 95.8466 18.8267 95.8466 14.64C95.8466 10.4267 97.2066 6.93334 99.9266 4.16001C102.647 1.38667 106.073 4.76837e-06 110.207 4.76837e-06C113.7 4.76837e-06 116.753 1 119.367 3C121.98 4.97334 123.607 7.53334 124.247 10.68H118.007C117.607 9.66667 117.033 8.80001 116.287 8.08001C115.54 7.33334 114.647 6.76001 113.607 6.36C112.593 5.96 111.5 5.76 110.327 5.76C107.847 5.76 105.833 6.58667 104.287 8.24001C102.74 9.89334 101.967 12.0267 101.967 14.64C101.967 16.3467 102.313 17.8667 103.007 19.2C103.7 20.5333 104.673 21.5733 105.927 22.32C107.207 23.0667 108.673 23.44 110.327 23.44C111.527 23.44 112.66 23.24 113.727 22.84C114.793 22.44 115.7 21.88 116.447 21.16C117.22 20.4133 117.78 19.5733 118.127 18.64H109.727V13.96ZM142.602 29.2C138.335 29.2 134.775 27.8133 131.922 25.04C129.095 22.24 127.682 18.76 127.682 14.6C127.682 10.44 129.095 6.97334 131.922 4.20001C134.775 1.40001 138.335 4.76837e-06 142.602 4.76837e-06C145.402 4.76837e-06 147.935 0.640004 150.202 1.92C152.495 3.17334 154.282 4.92001 155.562 7.16001C156.842 9.37334 157.482 11.8533 157.482 14.6C157.482 18.7867 156.068 22.2667 153.242 25.04C150.415 27.8133 146.868 29.2 142.602 29.2ZM142.602 23.48C144.255 23.48 145.748 23.1067 147.082 22.36C148.415 21.5867 149.455 20.52 150.202 19.16C150.975 17.8 151.362 16.28 151.362 14.6C151.362 12.0667 150.522 9.96001 148.842 8.28001C147.188 6.57334 145.108 5.72001 142.602 5.72001C140.122 5.72001 138.028 6.57334 136.322 8.28001C134.642 9.96001 133.802 12.0667 133.802 14.6C133.802 17.1333 134.642 19.2533 136.322 20.96C138.028 22.64 140.122 23.48 142.602 23.48ZM171.531 29.16C168.278 29.16 165.651 28.3067 163.651 26.6C161.678 24.8667 160.691 22.5067 160.691 19.52H166.811C166.811 20.1867 166.931 20.7867 167.171 21.32C167.438 21.8267 167.785 22.24 168.211 22.56C168.665 22.88 169.171 23.12 169.731 23.28C170.291 23.44 170.878 23.52 171.491 23.52C172.718 23.52 173.771 23.2267 174.651 22.64C175.558 22.0533 176.011 21.2533 176.011 20.24C176.011 19.8133 175.905 19.44 175.691 19.12C175.478 18.7733 175.225 18.5067 174.931 18.32C174.665 18.1067 174.238 17.8933 173.651 17.68C173.091 17.4667 172.611 17.3067 172.211 17.2C171.811 17.0933 171.211 16.9467 170.411 16.76C169.771 16.6 169.291 16.48 168.971 16.4C168.651 16.32 168.171 16.1867 167.531 16C166.918 15.8133 166.438 15.6533 166.091 15.52C165.771 15.36 165.345 15.1467 164.811 14.88C164.278 14.6133 163.865 14.3467 163.571 14.08C163.278 13.8133 162.945 13.48 162.571 13.08C162.225 12.68 161.958 12.2667 161.771 11.84C161.585 11.3867 161.425 10.88 161.291 10.32C161.158 9.73334 161.091 9.12 161.091 8.48001C161.091 5.81334 161.998 3.74667 163.811 2.28C165.625 0.813337 168.105 0.0800037 171.251 0.0800037C174.425 0.0800037 176.891 0.880004 178.651 2.48C180.438 4.08 181.331 6.28 181.331 9.08H175.331C175.331 7.93334 174.918 7.06667 174.091 6.48C173.291 5.86667 172.291 5.56 171.091 5.56C170.025 5.56 169.091 5.78667 168.291 6.24001C167.518 6.69334 167.131 7.34667 167.131 8.2C167.131 8.6 167.225 8.96001 167.411 9.28001C167.625 9.57334 167.865 9.82667 168.131 10.04C168.398 10.2267 168.811 10.4267 169.371 10.64C169.931 10.8267 170.398 10.9733 170.771 11.08C171.171 11.16 171.758 11.2933 172.531 11.48C173.385 11.6933 174.025 11.8667 174.451 12C174.878 12.1067 175.491 12.3067 176.291 12.6C177.091 12.8667 177.705 13.1333 178.131 13.4C178.585 13.6667 179.105 14.0267 179.691 14.48C180.278 14.9067 180.718 15.3867 181.011 15.92C181.331 16.4267 181.598 17.0533 181.811 17.8C182.051 18.52 182.171 19.3067 182.171 20.16C182.171 22.1067 181.678 23.7733 180.691 25.16C179.705 26.5467 178.425 27.56 176.851 28.2C175.305 28.84 173.531 29.16 171.531 29.16Z" fill="#0A0A0A"/>
</svg>
